<svg fill="none" height="111" viewBox="0 0 231 111" width="231" xmlns="http://www.w3.org/2000/svg"><path d="m70.7808 10.4454-3.9816 1.1238 2.5898-3.33643-2.2438-3.55451 3.8466 1.50844 2.587-3.31673-.2069 4.25875 3.8642 1.51295-3.9858 1.12073-.2083 4.2587zm19.6639 14.6695-4.0064-1.0784 3.8524-1.5448-.2127-4.2557 2.6117 3.2955 3.8392-1.5281-2.2246 3.5681 2.5898 3.2986-3.9741-1.0843-2.245 3.6105zm-74.8019 65.1804-3.823 1.5599 2.2143-3.5998-2.6308-3.2758 3.9903 1.0585 2.2129-3.6226.2654 4.2829 4.0064 1.0543-3.8554 1.5658.2655 4.2587zm-11.55427-24.4104-4.08853-.6317 3.66472-1.9536-.69218-4.2086 2.95494 2.9758 3.66323-1.9946-1.84189 3.8303 2.95348 2.994-4.08119-.6223-1.84774 3.8087zm3.79081-25.4602-3.42713 2.352 1.42688-3.9982-3.23065-2.6443 4.10172.1771 1.43275-3.9997 1.12478 4.1073 4.14131.1605-3.4433 2.3732 1.1263 4.1346zm13.58976-21.7571-4.1075.2787 3.1719-2.7322-1.5295-3.9483 3.4931 2.2582 3.1692-2.711-1.0061 4.1194 3.4872 2.2824-4.1222.2786-1.0119 4.1391zm23.2597-18.6676 1.9108 3.76199 4.0738-.70727-2.8772 3.03353 1.9299 3.79835-3.7146-1.90827-2.8961 3.07137.6027-4.2345-3.6912-1.88858 4.0519-.70573zm-4.6955 49.38c0-3.2911 0-3.8816-.0412-4.5572-.0411-.7178-.2038-1.0555-.8783-1.2025-.1439-.0424-.4093-.0424-.5926-.0637-.1422-.0212-.2654-.0424-.2654-.127 0-.1258.1013-.1682.327-.1682.4694 0 1.0207 0 2.3083.0636.1436 0 4.2088 0 4.678-.0212.4502-.0212.8183-.0636.9401-.1273.1232-.0636.1627-.0831.2243-.0831s.082.0831.082.1892c0 .147-.1215.4013-.1626.9904-.0205.3167-.0412.7195-.0821 1.2661-.0207.2121-.0823.3592-.1643.3592-.1218 0-.1627-.1046-.1627-.2743 0-.2741-.0412-.5269-.1028-.6951-.1422-.4862-.5719-.6966-1.4709-.7815-.3475-.0424-2.5735-.0636-2.7994-.0636-.0806 0-.1218.0636-.1218.2121v5.8231c0 .147.0207.2106.1218.2106.2668 0 2.779 0 3.2496-.0424.5515-.0424.8169-.1061 1.0207-.3589.1028-.1258.1644-.2107.2464-.2107.0602 0 .1011.0425.1011.1683 0 .127-.1011.4861-.1627 1.1827-.0616.6527-.0615 1.1389-.082 1.4342-.0207.2106-.0616.3167-.1439.3167-.1215 0-.1422-.1697-.1422-.338 0-.1906-.0205-.4013-.0821-.5905-.082-.3165-.327-.612-1.0616-.6968-.5515-.0634-2.5752-.1058-2.9214-.1058-.1025 0-.1437.0636-.1437.1482v1.8569c0 .7178-.0204 3.1652 0 3.6075.0412.8648.1629 1.3298.6747 1.5402.3475.15.899.1909 1.6952.1909.6129 0 1.2876-.0227 1.8389-.1909.654-.2104.8785-.6542 1.0412-1.5614.0411-.2316.0823-.3165.1848-.3165.1217 0 .1217.1695.1217.3165 0 .1697-.1626 1.6038-.2654 2.0461-.1422.5498-.3065.5498-1.1028.5498-1.5118 0-2.1865-.0424-2.9828-.0636-.8169-.0227-1.7568-.0637-2.5547-.0637-.4896 0-.9795.0849-1.5104.0637-.2257 0-.327-.0424-.327-.1697 0-.0622.1013-.1046.2243-.1258.204-.0212.3272-.0212.4694-.0634.4296-.1046.695-.4013.7361-1.9825.0205-.8241.0412-1.8993.0412-3.7772zm13.0045 0c0-3.2926 0-3.8833-.0425-4.5572-.0395-.7178-.2039-1.0555-.8769-1.2025-.1959-.038-.3946-.0592-.5938-.0637-.1834 0-.2655-.0424-.2655-.127 0-.1258.1025-.1682.3271-.1682.9194 0 2.207.0636 2.3095.0636.4899 0 1.2861-.0636 2.2262-.0636 3.3507 0 4.0856 2.1097 4.0856 3.1652 0 1.7296-.9591 2.7624-1.9197 3.797 1.5118.4847 3.5343 1.9824 3.5343 4.4511 0 2.2579-1.7159 4.5993-5.2091 4.5993-.2257 0-.8782-.0407-1.4723-.0619-.4144-.0304-.8295-.0516-1.245-.0637-.6541 0-1.2876.0637-2.0032.0637-.2243 0-.327-.0424-.327-.1485 0-.0636.0411-.1485.3065-.1485.1644 0 .3066-.0212.4914-.0636.409-.0846.4896-.5693.5717-1.1813.1027-.8858.1027-2.5533.1027-4.5782zm1.6336.4649c0 .1485.0412.1909.1439.2331.1215.0198.4897.0834 1.245.0834 1.1452 0 1.4298-.041 1.8593-.5481.4298-.5059.7364-1.2661.7364-2.131 0-1.7508-.7568-3.6287-2.7586-3.6287-.2242 0-.654.0213-.981.1044-.1834.0439-.245.106-.245.2333zm0 2.2368c0 1.625 0 4.2407.0207 4.5572.0616 1.0345.0616 1.3297.695 1.6462.5515.2758 1.4298.3165 1.7965.3165 1.1042 0 2.8817-.6117 2.8817-2.9955 0-1.2662-.4093-3.1019-1.9813-4.2195-.6952-.4862-1.207-.5498-1.6967-.6132-.2654-.0425-1.2875-.0425-1.5941-.0425-.0806 0-.1218.0425-.1218.1483zm12.4695-2.7017c0-3.2911 0-3.8816-.0409-4.5572-.0412-.7178-.2041-1.0555-.8786-1.2025-.2293-.0429-.462-.0644-.6951-.0637-.0821 0-.1627-.0424-.1627-.127 0-.1258.1011-.1682.327-.1682.9194 0 2.1454.0636 2.3081.0636.4502 0 1.6338-.0636 2.5737-.0636 2.5547 0 3.4727.886 3.8012 1.2025.4487.4423 1.0207 1.3919 1.0207 2.7639 0 2.7427-2.125 4.7693-5.0257 4.7693-.1027 0-.327 0-.4297-.023-.1011 0-.2243-.0407-.2243-.1467 0-.1697.1232-.1895.5513-.1895 1.9813 0 3.5357-1.3931 3.5357-3.6089 0-.5269-.0616-1.9401-1.1454-3.0804-1.0821-1.1389-2.3287-1.054-2.798-1.054-.3474 0-.6951.0422-.8799.1255-.1215.0425-.1627.191-.1627.4014v8.672c0 2.0264 0 3.6924.1028 4.5784.0599.6117.1831 1.0752.7962 1.1601.2859.0407.7361.0846.9194.0846.1232 0 .1644.0636.1644.1258 0 .106-.1028.1697-.327.1697-1.125 0-2.4125-.0637-2.5136-.0637-.0616 0-1.3477.0637-1.9606.0637-.226 0-.3273-.0424-.3273-.1697 0-.0622.0397-.1258.1629-.1258.1834 0 .4298-.0422.6129-.0846.4093-.0849.5118-.5484.5927-1.1601.1025-.886.1025-2.552.1025-4.5784zm11.7699 1.8371c0-3.4183 2.4108-8.2495 8.0479-8.2495 4.5974 0 8.029 2.9958 8.029 7.9116 0 4.7254-3.2278 8.6296-8.1507 8.6296-5.5974 0-7.9262-4.495-7.9262-8.2917zm14.1163.2529c0-5.0646-2.9828-7.7861-6.2106-7.7861-3.4125 0-5.9655 2.3217-5.9655 6.941 0 4.916 2.8596 8.0813 6.5375 8.0813 1.8389 0 5.6386-1.0965 5.6386-7.2362zm19.4589 1.625c0 2.0249 0 3.6075.082 4.4935.061.8027.245 1.1389.837 1.245.286.0636.552.0636.796.0848.226.0227.267.0846.267.1483 0 .0848-.082.1484-.267.1484-.959 0-2.45-.0636-2.614-.0636-.184 0-1.348.0636-1.982.0636-.285 0-.327-.0636-.327-.1484 0-.0637.021-.1256.307-.1483.142-.0212.224-.0212.408-.0636.327-.0637.633-.2743.695-1.2011.061-.886.082-2.6792.082-4.7056v-8.587c0-.0848-.062-.147-.123-.147-.307-.0212-1.327-.0212-4.433-.0212-3.004 0-3.514 0-3.8.0212-.245.0197-.348.0622-.348.3999v8.5447c0 2.0249.021 3.5015.082 4.3875.042.7178.184 1.1813.797 1.2874.286.0424.654.0636.837.0848.245.0227.307.0846.307.168 0 .0636-.081.1273-.368.1273-.858 0-2.472-.0637-2.574-.0637-.163 0-1.2862.0637-1.8991.0637-.2259 0-.3681-.0212-.3681-.1273 0-.0622.0204-.1258.2449-.168.1832-.0212.2243-.0212.4486-.0636.4707-.0849.6547-.5059.6947-1.4132.062-.886.083-2.3216.083-4.3465v-3.756c0-3.291 0-3.8406-.041-4.5147-.042-.8027-.287-1.0767-.8582-1.2025-.226-.0425-.4488-.0425-.6336-.0637-.1834-.0209-.245-.0846-.245-.1694 0-.0834.1232-.1258.3475-.1258.7553 0 1.9193.0636 2.2263.0636h10.399c.102 0 1.655-.0636 2.104-.0636.286 0 .307.0636.307.1258 0 .0848-.062.1272-.266.1694-.123.0212-.224.0212-.388.0637-.511.1258-.735.253-.776 1.1813-.041.6756-.041 1.2873-.041 4.5783zm7.867-3.715c0-3.2911 0-3.8816-.039-4.5572-.041-.7178-.206-1.0555-.88-1.2025-.144-.0424-.408-.0424-.591-.0637-.144-.0212-.267-.0424-.267-.127 0-.1258.101-.1682.328-.1682.468 0 1.02 0 2.307.0636.145 0 4.209 0 4.678-.0212.45-.0212.819-.0636.94-.1273.123-.0636.163-.0831.225-.0831.061 0 .082.0831.082.1892 0 .147-.122.4013-.162.9904-.022.3167-.041.7195-.083 1.2661-.021.2121-.082.3592-.163.3592-.122 0-.163-.1046-.163-.2743 0-.2741-.041-.5269-.102-.6951-.143-.4862-.572-.6966-1.471-.7815-.346-.0424-2.574-.0636-2.8-.0636-.08 0-.121.0636-.121.2121v5.8231c0 .147.021.2106.121.2106.269 0 2.781 0 3.251-.0424.552-.0424.817-.1061 1.02-.3589.102-.1258.164-.2107.246-.2107.06 0 .101.0425.101.1683 0 .127-.101.4861-.163 1.1827-.061.6527-.061 1.1389-.082 1.4342-.02.2106-.061.3167-.144.3167-.121 0-.143-.1697-.143-.338 0-.1906-.021-.4013-.082-.5905-.083-.3165-.327-.612-1.062-.6968-.551-.0634-2.577-.1058-2.921-.1058-.103 0-.145.0636-.145.1482v1.8569c0 .7178-.021 3.1652 0 3.6075.041.8648.162 1.3298.676 1.5402.346.15.897.1909 1.693.1909.613 0 1.288-.0227 1.839-.1909.654-.2104.88-.6542 1.042-1.5614.041-.2316.083-.3165.184-.3165.122 0 .122.1695.122.3165 0 .1697-.161 1.6038-.265 2.0461-.143.5498-.307.5498-1.103.5498-1.512 0-2.187-.0424-2.983-.0636-.817-.0227-1.757-.0637-2.555-.0637-.489 0-.979.0849-1.509.0637-.225 0-.328-.0424-.328-.1697 0-.0622.101-.1046.224-.1258.204-.0212.327-.0212.47-.0634.429-.1046.695-.4013.736-1.9825.02-.8241.039-1.8993.039-3.7772v-3.7135zm14.333 7.3422c2.533-3.1849 7.804-9.9367 9.807-12.4687.757-.9497 1.082-1.2874 1.327-1.2874.205 0 .307.1695.307 2.0052 0 3.9452 0 7.7012.061 11.6463.021 1.5402.183 2.1098.837 2.2144.102.0227.468.0634.798.0846.245.0212.307.0848.307.1485 0 .1258-.084.1485-.307.1485-.736 0-2.535-.0637-2.861-.0637-.449 0-1.103.0637-1.839.0637-.245 0-.305-.041-.305-.1273 0-.1046.04-.1485.305-.168.183-.0212.409-.0424.593-.0848.591-.1258.674-1.0119.695-2.5945.061-3.4605.041-6.9834.082-10.5923-1.063 1.3722-9.602 12.3007-10.461 13.2716-.429.4845-.654.5905-.756.5905-.206 0-.267-.1665-.267-1.0116 0-3.4819.061-8.2297 0-12.281-.021-2.3201-.245-2.4686-.897-2.5944-.268-.0425-.49-.0425-.655-.0637-.162-.0209-.224-.0634-.224-.1467 0-.1485.185-.1485.409-.1485.634 0 1.92.0636 2.247.0636.652 0 1.472-.0636 2.043-.0636.246 0 .347.0424.347.1272 0 .0834-.041.1471-.265.168-.245.0212-.346.0212-.531.0637-.572.1258-.716.3589-.758 2.1521zm1.655-17.1107c.204-.2953.572-.6118.674-.6118.06 0 .102.0212.122.1271.144.7163 1.125 1.6447 3.086 1.6447 1.492 0 2.453-.4847 3.311-1.5614.161-.1892.183-.1892.265-.1892s.103.1483-.02.3165c-.989 1.4738-2.617 2.3498-4.353 2.3414-.818 0-1.777-.1683-2.553-.7588-.409-.3377-.635-.6966-.635-1.0133.005-.1068.041-.2096.103-.2952zm17.222 17.6181c-1.981-1.8357-2.472-4.2407-2.472-6.2458 0-1.4129.47-3.8816 2.289-5.7597 1.224-1.2661 3.085-2.2565 6.231-2.2565.818 0 1.96.0622 2.963.2528.776.1471 1.41.2107 2.167.315.143.0212.183.1061.183.2334 0 .168-.062.421-.101 1.1813-.042.6966-.042 1.8566-.062 2.1733-.02.3165-.06.4421-.183.4421-.144 0-.164-.1468-.164-.4421 0-.8238-.326-1.6886-.859-2.1521-.714-.6332-2.289-1.2025-4.085-1.2025-2.717 0-3.983.8224-4.699 1.5387-1.491 1.478-1.839 3.3561-1.839 5.5083 0 4.03 3.004 7.7221 7.377 7.7221 1.531 0 2.736-.1906 3.553-1.0554.43-.465.695-1.3917.757-1.7721.041-.2316.083-.3165.205-.3165.101 0 .144.147.144.3165 0 .147-.247 1.9825-.451 2.7005-.121.3999-.162.4438-.53.6103-.817.3391-2.37.4847-3.677.4847-3.068.0014-5.132-.7785-6.747-2.2763zm18.828-6.4987c.635-.6331 3.413-3.6499 4.659-4.9797 1.226-1.307 1.308-1.5189 1.308-1.772 0-.1771-.106-.3362-.265-.4013-.144-.0637-.184-.1044-.184-.1892 0-.0849.122-.1273.305-.1273.593 0 .531.0636 1.226.0636.634 0 1.839-.0636 2.166-.0636.286 0 .348.0636.348.1485 0 .0848-.041.1273-.225.1467-.357.0324-.709.118-1.042.2546-.511.2104-.899.4635-2.125 1.6872-1.798 1.793-4.125 4.1768-4.657 4.7903 1.287 1.4553 5.004 5.3583 5.965 6.2865 1.675 1.6251 2.39 2.0885 3.37 2.2795.185.0407.389.0619.594.0619.161 0 .284.0409.284.1485 0 .1075-.082.1485-.306.1485h-1.511c-1.778 0-2.248-.2319-3.208-1.0119-1.226-.9918-4.903-5.0643-6.701-7.2801v2.1749c0 2.0249 0 3.6923.103 4.5769.06.6117.184 1.0767.796 1.1615.286.041.696.0849.817.0849.184 0 .245.0848.245.1482 0 .1061-.081.1485-.306.1485-1.124 0-2.411-.0636-2.512-.0636-.102 0-1.308.0636-1.922.0636-.224 0-.327-.0227-.327-.1485 0-.0634.04-.1482.225-.1482.122 0 .346-.0212.531-.0622.409-.0863.531-.571.613-1.1827.102-.8846.102-2.5521.102-4.5769v-3.7151c0-3.291 0-3.8815-.042-4.5569-.04-.7181-.245-1.0755-.694-1.1815-.242-.055-.488-.0837-.736-.0846-.163 0-.224-.0425-.224-.1258 0-.1273.102-.1698.327-.1698.674 0 2.044.0637 2.145.0637s1.389-.0637 2.002-.0637c.226 0 .327.0425.327.1485 0 .0849-.04.1273-.223.1471-.224.0212-.245.0212-.452.0424-.551.0634-.712.4859-.755 1.2237-.041.6754-.041 1.2659-.041 4.5569zm18.511 2.2566c-.102 0-.162.0636-.204.1697l-1.227 3.7345c-.185.5271-.284 1.033-.284 1.4131 0 .4226.387.6118.736.6118h.183c.204 0 .265.0424.265.1273 0 .1258-.184.1682-.368.1682-.489 0-1.306-.0637-1.532-.0637-.225 0-1.348.0637-2.308.0637-.266 0-.389-.0424-.389-.1682 0-.0849.103-.1273.286-.1273.144 0 .327-.0212.491-.0422.939-.1258 1.348-.9285 1.716-1.9827l4.637-13.1032c.245-.6951.327-.8224.45-.8224.122 0 .204.1061.449.7603.307.8011 3.515 9.5139 4.76 12.7218.736 1.8779 1.329 2.2155 1.757 2.3428.306.1044.633.1256.798.1256.121 0 .224.0212.224.1273 0 .1258-.183.1682-.409.1682-.307 0-1.798 0-3.207-.0424-.39-.0213-.615-.0213-.615-.1471 0-.0863.062-.1272.145-.1499.122-.0407.245-.2302.122-.5693l-1.899-5.1901c-.041-.0849-.084-.1273-.185-.1273h-4.392zm4.126-.7588c.102 0 .102-.0636.083-.1485l-1.942-5.696c-.101-.3165-.203-.3165-.306 0l-1.798 5.696c-.04.1061 0 .1485.062.1485zm21.973-8.9658c.226 0 .327.0409.327.1682 0 .0848-.082.1255-.161.1255-.145 0-.267.0227-.512.0637-.551.1061-.714.465-.757 1.2025-.041.6756-.041 1.2661-.041 4.5586v3.7136c0 2.0249 0 3.6924.103 4.5784.06.6088.183 1.0752.796 1.1601.286.0424.716.0848.838.0848.184 0 .246.0634.246.127 0 .1046-.084.1683-.307.1683-1.126 0-2.433-.0637-2.535-.0637-.103 0-1.348.0637-1.961.0637-.226 0-.327-.041-.327-.1683 0-.0636.038-.127.223-.127.122 0 .348-.0212.531-.0622.409-.0863.532-.5725.613-1.1812.103-.8861.103-2.5535.103-4.5587v-.6332c0-.1255-.042-.1467-.145-.1467-.879.0212-1.492-.0213-1.961-.0425-.062 0-.124 0-.204.0425-.15.0853-.282.2-.389.3376-.39.4226-1.554 2.1946-2.084 2.9534-.96 1.4977-1.471 2.1307-2.044 2.6563-.695.6574-1.594.93-3.269.93l-1.003-.0212c-.244 0-.366-.0425-.366-.1698 0-.0409.06-.1255.327-.1255.245 0 .346 0 .652-.0212.92-.0849 1.512-.4031 2.432-1.5614.757-.9531 1.493-1.9243 2.207-2.9124.652-.8648 1.409-1.9825 2.084-2.4687-2.064-.8648-2.944-2.552-2.944-4.1982 0-1.6463.838-2.8488 1.923-3.5863.817-.5923 2-.886 3.433-.886.918 0 1.654.0636 2.164.0636.25 0 1.395-.0636 2.008-.0636zm-2.819 1.0752c0-.0846-.02-.1483-.123-.2104-.267-.1061-.428-.1273-1.041-.1273-2.269 0-3.758 1.2874-3.758 3.7984 0 2.405 1.797 3.797 3.941 3.797.468 0 .696-.0213.858-.0834.123-.0424.123-.1909.123-.2741zm-172.4947 30.6609v.5074c0 .1046.0616.1258.1232.1258h3.5548c.0616 0 .1422-.0212.1422-.1258.572-3.7136 3.1883-6.7925 7.6829-6.7925 4.9025 0 7.6798 4.2405 7.6798 7.9753 0 4.8948-2.9212 8.566-7.7209 8.566-4.9037 0-7.8045-4.1362-7.7224-8.5463 0-.0849-.0821-.1273-.1437-.1273h-3.4727c-.0616 0-.1232.0227-.1232.1273v2.1309c0 2.0249 0 3.6924.1028 4.5784.0616.6103.1833 1.0753.7962 1.1601.2861.0424.7156.0846.8374.0846.1848 0 .2449.0636.2449.1258 0 .1061-.0806.1697-.3065.1697-1.1233 0-2.4299-.0636-2.5326-.0636-.1013 0-1.3271.0636-1.9402.0636-.2257 0-.327-.0424-.327-.1697 0-.0622.0397-.1258.2243-.1258.1217 0 .3477-.021.531-.0634.4091-.0848.5309-.5695.6129-1.1798.1028-.886.1028-2.555.1028-4.5784v-3.7135c0-3.2925 0-3.8816-.0412-4.5587-.0411-.7163-.2449-1.0752-.6952-1.1798-.2069-.0543-.4196-.0829-.6333-.0848-.0808 0-.1629-.0422-.1629-.1271 0-.1258.1013-.1682.327-.1682.6747 0 1.9005.0636 2.0018.0636.1027 0 1.3886-.0636 2.0017-.0636.2243 0 .3271.0424.3271.1682 0 .0849-.0806.1271-.1629.1271-.1437 0-.2655.0212-.5116.0636-.5515.1046-.7142.4635-.7553 1.201-.0354 1.4763-.0491 2.9531-.0412 4.4299zm17.2223 2.2597c0-4.6632-2.5326-7.7436-5.9656-7.7436-3.6354 0-5.659 2.8275-5.659 6.8379 0 5.063 2.6558 8.0798 6.1708 8.0798 2.2672-.0015 5.4538-1.3525 5.4538-7.1741zm7.3484-2.1324c0-3.291 0-3.8816-.0409-4.5572-.0411-.7193-.2038-1.0555-.8785-1.2025-.2293-.0429-.462-.0644-.6952-.0636-.082 0-.1626-.0425-.1626-.1271 0-.1258.101-.1682.327-.1682.9194 0 2.1454.0637 2.3083.0637.4502 0 1.6336-.0637 2.5735-.0637 2.5547 0 3.4727.886 3.8011 1.2025.4488.4423 1.0208 1.392 1.0208 2.7639 0 2.7429-2.125 4.7676-5.0257 4.7676-.1025 0-.327 0-.4296-.0227-.1013 0-.2245-.0407-.2245-.1468 0-.1697.1232-.1894.5516-.1894 1.981 0 3.5355-1.3932 3.5355-3.609 0-.5286-.0616-1.94-1.1454-3.0804-1.0821-1.1388-2.3285-1.0542-2.798-1.0542-.3475 0-.6949.0424-.8797.1258-.1218.0424-.1629.1909-.1629.4013v8.6735c0 2.0264 0 3.6924.1027 4.5767.0602.612.1834 1.077.7962 1.1618.2859.0407.7361.0846.9195.0846.1232 0 .1643.0636.1643.1258 0 .1061-.1027.1697-.327.1697-1.1249 0-2.4125-.0636-2.5136-.0636-.0616 0-1.3477.0636-1.9606.0636-.2259 0-.327-.0424-.327-.1697 0-.0622.0395-.1258.1627-.1258.1833 0 .4297-.0422.6131-.0846.4091-.0848.5118-.5483.5924-1.1618.1025-.8858.1025-2.5518.1025-4.5767zm14.6163 7.3437c2.5343-3.1864 7.8047-9.9382 9.8064-12.4687.7568-.9497 1.0824-1.2874 1.3285-1.2874.2041 0 .3066.1665.3066 2.0022 0 3.9452 0 7.7012.0601 11.6464.0205 1.5402.1848 2.1097.8389 2.2158.1013.0212.4692.0636.7962.0846.2449.023.3065.0849.3065.1485 0 .1273-.082.1485-.3065.1485-.7346 0-2.534-.0636-2.861-.0636-.4488 0-1.1028.0636-1.8389.0636-.245 0-.3066-.0424-.3066-.1273 0-.1046.0426-.1468.3066-.168.1848-.0212.4091-.0409.5939-.0848.5924-.1258.673-1.0118.6937-2.5945.0616-3.4604.0409-6.9848.082-10.5923-1.0633 1.3722-9.6023 12.3008-10.4604 13.2716-.4281.4845-.654.592-.7551.592-.2055 0-.2654-.1679-.2654-1.013 0-3.482.0601-8.2298 0-12.2796-.0207-2.3201-.2464-2.4686-.899-2.5942-.2668-.0424-.4913-.0424-.654-.0636-.1643-.0212-.2245-.0637-.2245-.1485 0-.1485.1833-.1485.4076-.1485.6336 0 1.9212.0636 2.2482.0636.6526 0 1.4709-.0636 2.0429-.0636.2447 0 .346.0424.346.1258 0 .0863-.0395.15-.264.1695-.2464.0212-.3474.0212-.5322.0636-.572.1258-.7142.3574-.7553 2.1522zm20.8887 2.4263c-1.553 0-2.125.0212-2.6561.0636-1.063.0636-1.3886.421-1.4502 1.3705-.0205.1909-.0616.3574-.1848.3574-.0806 0-.1422-.0831-.1422-.3786-.0205-1.3296-.1028-2.0264-.1232-2.3429-.0205-.1665.0204-.1892.1232-.1892.3681.0619 1.0823.1058 1.8184.1058.1629 0 .2038-.0439.327-.274l4.9029-14.0122c.265-.7375.388-.8857.51-.8857.123 0 .205.1482.409.6754.389.992 3.637 9.8321 5.353 14.262.082.1694.143.2331.327.2331.409 0 1.736-.0439 2.145-.1271.122-.0212.163 0 .122.168-.149.8066-.231 1.625-.245 2.446 0 .2136-.062.3164-.142.3164-.123 0-.165-.1255-.185-.3164-.06-.927-.449-1.3693-1.327-1.4327-.594-.0424-1.839-.0424-2.677-.0424h-6.905zm4.495-.9073c1.777 0 2.205-.0424 2.39-.0636.082-.0227.122-.0619.06-.1892-1.164-3.1228-2.634-7.6603-4.147-11.7539-.041-.1046-.081-.1046-.122-.0212l-3.513 10.6967c-.185.5286-.369.9906-.369 1.1618 0 .0831.062.0831.124.1043.347.0409.96.0636 2.164.0636h3.413zm12.557-1.519c2.534-3.1864 7.805-9.9382 9.806-12.4687.758-.9497 1.083-1.2874 1.329-1.2874.204 0 .306.1665.306 2.0022 0 3.9452 0 7.7012.06 11.6464.021 1.5402.185 2.1097.839 2.2158.1.0212.47.0636.797.0846.244.023.306.0849.306.1485 0 .1273-.082.1485-.306.1485-.735 0-2.536-.0636-2.862-.0636-.448 0-1.102.0636-1.838.0636-.245 0-.307-.0424-.307-.1273 0-.1046.043-.1468.307-.168.184-.0212.409-.0409.594-.0848.59-.1258.673-1.0118.693-2.5945.062-3.4604.041-6.9848.082-10.5923-1.063 1.3722-9.602 12.3008-10.46 13.2716-.428.4845-.654.592-.755.592-.207 0-.267-.1679-.267-1.013 0-3.482.06-8.2298 0-12.2796-.021-2.3201-.246-2.4686-.898-2.5942-.268-.0424-.491-.0424-.654-.0636-.164-.0212-.224-.0637-.224-.1485 0-.1485.183-.1485.407-.1485.634 0 1.922.0636 2.249.0636.652 0 1.471-.0636 2.043-.0636.244 0 .346.0424.346.1258 0 .0863-.04.15-.264.1695-.247.0212-.348.0212-.533.0636-.572.1258-.714.3574-.755 2.1522zm26.612-3.6287c0 2.0249 0 3.6924.101 4.5784.062.6103.185 1.0752.798 1.1601.286.0424.735.0848.919.0848.122 0 .163.0634.163.1256 0 .1061-.101.1697-.328.1697-1.124 0-2.411-.0636-2.512-.0636-.102 0-1.389.0636-2.002.0636-.225 0-.327-.0424-.327-.1697 0-.0622.039-.1256.163-.1256.183 0 .428-.0409.613-.0848.409-.0849.51-.5484.592-1.1601.101-.886.101-2.555.101-4.642v-1.8567c-.94.4423-2.145.6103-3.248.6103-1.757 0-3.003-.4847-3.801-1.4553-.408-.5074-.858-1.2238-.858-3.2926 0-.9072.021-1.6235-.02-2.2991-.042-.8012-.184-1.054-.737-1.1404-.204-.0212-.306-.0212-.529-.0409-.245-.0424-.245-.1271-.245-.1695 0-.1031.142-.1258.367-.1258.756 0 1.676.0637 1.96.0637.307 0 1.574-.0637 2.024-.0637.245 0 .326.0424.326.1485 0 .041-.06.1273-.345.1483-.696.0636-1.022.2106-1.063 1.2873-.022.7375-.022 1.7084-.022 2.4913 0 2.4687 1.39 3.6075 3.556 3.6075.858 0 1.838-.0633 2.635-.4225v-1.4963c0-3.0167 0-3.5241-.039-4.198-.041-.718-.205-1.0557-.88-1.2025-.209-.0402-.421-.0617-.634-.0636-.145 0-.224-.0425-.224-.1273 0-.1258.101-.168.326-.168.92 0 2.208.0634 2.309.0634s1.389-.0634 2.002-.0634c.224 0 .327.0422.327.168 0 .0848-.082.1273-.161.1273-.145 0-.269.0212-.514.0636-.551.1043-.712.4632-.755 1.2025-.041.6739-.041 1.2661-.041 4.5569v3.7106zm7.876-3.715c0-3.291 0-3.8816-.039-4.5572-.041-.7193-.206-1.0555-.88-1.2025-.144-.0424-.408-.0424-.591-.0636-.144-.0227-.267-.0425-.267-.1271 0-.1258.101-.1682.329-.1682.467 0 1.019 0 2.306.0637.146 0 4.209 0 4.678-.0213.451-.0227.819-.0636.94-.1272.124-.0637.163-.0849.225-.0849.061 0 .082.0849.082.1895 0 .1484-.122.4028-.161.9903-.022.3167-.041.7195-.084 1.2662-.021.2121-.082.3589-.163.3589-.121 0-.163-.1044-.163-.2756 0-.274-.041-.5271-.102-.6951-.143-.4847-.572-.6968-1.471-.7814-.346-.0424-2.574-.0637-2.8-.0637-.08 0-.121.0637-.121.2119v5.8248c0 .147.022.2107.121.2107.269 0 2.781 0 3.252-.0425.551-.0409.816-.1045 1.019-.3574.102-.1258.164-.2121.246-.2121.06 0 .101.0424.101.1682 0 .127-.101.486-.163 1.1828-.061.6527-.061 1.1388-.082 1.4326-.02.2121-.061.3165-.143.3165-.122 0-.144-.168-.144-.3377 0-.1909-.021-.4013-.082-.5905-.082-.3167-.327-.612-1.062-.6968-.551-.0637-2.576-.1061-2.921-.1061-.103 0-.145.0636-.145.1485v1.8584c0 .7178-.021 3.1652 0 3.6075.041.8648.163 1.3297.674 1.5402.348.1499.899.1909 1.696.1909.613 0 1.287-.0227 1.839-.1909.654-.2105.879-.6542 1.041-1.56.041-.2316.083-.3164.184-.3164.122 0 .122.1679.122.3164 0 .168-.161 1.6039-.265 2.0461-.142.5498-.307.5498-1.103.5498-1.512 0-2.187-.0424-2.983-.0636-.817-.0227-1.757-.0636-2.554-.0636-.49 0-.98.0848-1.51.0636-.225 0-.328-.0424-.328-.1697 0-.0622.101-.1046.225-.1258.203-.021.327-.021.469-.0634.429-.1046.695-.4013.736-1.9824.02-.8242.04-1.8994.04-3.7773v-3.7135zm13.42 7.8497c-1.981-1.8357-2.472-4.2407-2.472-6.2459 0-1.4129.47-3.8815 2.289-5.7597 1.224-1.2661 3.085-2.2565 6.231-2.2565.818 0 1.961.0622 2.963.2529.776.147 1.41.2106 2.167.315.143.0212.183.106.183.2333 0 .1665-.062.4196-.101 1.1798-.041.6966-.041 1.8582-.062 2.1749-.02.3164-.06.442-.183.442-.144 0-.164-.1482-.164-.442 0-.8239-.326-1.6887-.858-2.1522-.714-.6329-2.29-1.2025-4.086-1.2025-2.717 0-3.983.8224-4.699 1.5387-1.491 1.478-1.838 3.3562-1.838 5.5083 0 4.0301 3.003 7.7239 7.376 7.7239 1.531 0 2.736-.1909 3.553-1.0557.43-.465.695-1.3917.757-1.7718.041-.2319.083-.3168.205-.3168.101 0 .144.1471.144.3168 0 .1467-.246 1.9824-.45 2.7002-.122.3999-.163.4438-.531.6103-.817.3394-2.37.4847-3.677.4847-3.068 0-5.131-.78-6.747-2.2777zm18.828-6.4987c.635-.6332 3.413-3.65 4.659-4.9797 1.226-1.3071 1.308-1.519 1.308-1.7721 0-.1771-.106-.3362-.265-.4013-.144-.0637-.184-.1044-.184-.1892 0-.0863.122-.1273.305-.1273.593 0 .531.0637 1.226.0637.634 0 1.839-.0637 2.166-.0637.286 0 .348.0637.348.1485 0 .0849-.041.1273-.224.1468-.358.0323-.709.1179-1.043.2545-.51.2119-.899.465-2.125 1.6872-1.798 1.7931-4.125 4.1768-4.657 4.7903 1.287 1.4553 5.005 5.3583 5.965 6.2865 1.675 1.6236 2.39 2.0886 3.37 2.2795.185.0409.389.0619.594.0619.161 0 .285.041.285.1485s-.083.1485-.307.1485h-1.51c-1.779 0-2.249-.2319-3.209-1.0133-1.226-.9904-4.903-5.0643-6.7-7.2801v2.1748c0 2.0264 0 3.6924.102 4.5769.06.6118.184 1.0767.797 1.1616.286.0409.695.0848.816.0848.184 0 .245.0846.245.1483 0 .106-.08.1485-.306.1485-1.123 0-2.411-.0637-2.512-.0637s-1.308.0637-1.921.0637c-.225 0-.327-.0227-.327-.1485 0-.0637.039-.1483.224-.1483.122 0 .346-.0212.531-.0621.409-.0864.531-.5711.613-1.1828.102-.8845.102-2.552.102-4.5769v-3.7136c0-3.2925 0-3.8815-.042-4.5586-.04-.7178-.245-1.0752-.694-1.1798-.242-.0555-.488-.0844-.736-.0863-.163 0-.224-.0407-.224-.1256 0-.1273.102-.1682.327-.1682.674 0 2.044.0636 2.145.0636s1.389-.0636 2.002-.0636c.226 0 .327.0409.327.1485 0 .0848-.04.1272-.223.147-.224.0227-.245.0227-.452.0424-.551.0634-.712.4859-.755 1.2237-.041.6754-.041 1.2659-.041 4.5584zm18.512 2.2565c-.103 0-.163.0636-.206.1697l-1.226 3.7345c-.185.5272-.284 1.0331-.284 1.4132 0 .4225.387.6117.736.6117h.183c.204 0 .265.0424.265.1273 0 .1258-.184.1682-.367.1682-.49 0-1.307-.0636-1.533-.0636-.225 0-1.348.0636-2.308.0636-.266 0-.389-.0424-.389-.1682 0-.0849.103-.1273.286-.1273.144 0 .327-.0212.491-.0422.939-.1258 1.348-.9269 1.716-1.9827l4.637-13.1032c.245-.6951.327-.8223.45-.8223.122 0 .204.106.449.7602.307.8012 3.515 9.5139 4.76 12.7218.736 1.8779 1.329 2.2156 1.757 2.3429.307.1045.634.1255.798.1255.122 0 .224.0212.224.1273 0 .1258-.183.1682-.409.1682-.306 0-1.798 0-3.207-.0424-.39-.0212-.615-.0212-.615-.147 0-.0864.062-.1273.146-.15.121-.0407.244-.2301.121-.5693l-1.899-5.1901c-.041-.0849-.083-.1273-.185-.1273h-4.391zm4.126-.7588c.103 0 .103-.0636.084-.1485l-1.942-5.6975c-.101-.3164-.204-.3164-.306 0l-1.8 5.6975c-.038.1046 0 .1485.063.1485zm21.972-8.9673c.226 0 .327.041.327.1682 0 .0846-.082.1256-.161.1256-.145 0-.267.0227-.512.0636-.551.1061-.714.465-.757 1.2025-.041.6754-.041 1.2662-.041 4.5587v3.7135c0 2.0249 0 3.6924.103 4.5784.06.6088.183 1.0753.796 1.1601.286.0424.716.0831.838.0831.184 0 .246.0652.246.1288 0 .1046-.084.1682-.307.1682-1.126 0-2.432-.0636-2.535-.0636s-1.348.0636-1.961.0636c-.226 0-.327-.0409-.327-.1682 0-.0636.038-.1288.223-.1288.122 0 .348-.0195.531-.0604.409-.0863.532-.5725.613-1.1813.103-.886.103-2.555.103-4.5586v-.6332c0-.1256-.041-.1483-.145-.1483-.879.0227-1.492-.0212-1.961-.0409-.062 0-.123 0-.204.0409-.15.0854-.282.2008-.389.3392-.39.4211-1.554 2.1929-2.084 2.9516-.96 1.498-1.47 2.131-2.044 2.6581-.695.6574-1.594.9299-3.269.9299l-1.002-.0212c-.245 0-.367-.0424-.367-.1697 0-.041.06-.1256.327-.1256.245 0 .346-.0002.652-.0212.92-.0848 1.512-.403 2.432-1.5616.757-.9529 1.493-1.924 2.207-2.9122.652-.8648 1.409-1.9827 2.084-2.4686-2.064-.8648-2.944-2.5535-2.944-4.1983 0-1.6447.838-2.8487 1.923-3.5863.817-.5922 2-.886 3.433-.886.918 0 1.654.0637 2.165.0637.25 0 1.394-.0637 2.007-.0637zm-2.818 1.0752c0-.0846-.022-.1482-.123-.2104-.268-.106-.429-.1273-1.042-.1273-2.268 0-3.758 1.2889-3.758 3.7985 0 2.405 1.798 3.7967 3.941 3.7967.468 0 .696-.0213.859-.0832.123-.0424.123-.1909.123-.2743zm-187.1675 38.6391c-1.9813-1.835-2.4724-4.24-2.4724-6.246 0-1.412.4706-3.8811 2.289-5.7592 1.2246-1.2662 3.0856-2.2565 6.231-2.2565.8169 0 1.9609.0621 2.9623.2528.7758.147 1.4094.2106 2.1659.315.1424.0212.1834.106.1834.2333 0 .1665-.0616.4196-.1026 1.1798-.0411.6966-.0411 1.8582-.0615 2.1749-.0193.3165-.0602.442-.1834.442-.1422 0-.1644-.1482-.1644-.442 0-.8239-.3255-1.6887-.8578-2.1522-.7142-.6329-2.2876-1.2025-4.0856-1.2025-2.7173 0-3.9828.8224-4.6984 1.5387-1.4916 1.4781-1.8391 3.3559-1.8391 5.5079 0 4.03 3.0032 7.724 7.3764 7.724 1.5311 0 2.7364-.191 3.5533-1.055.4295-.465.6951-1.392.7567-1.772.0409-.232.0821-.317.2038-.317.1026 0 .1437.147.1437.317 0 .147-.2464 1.982-.4502 2.7-.1218.4-.1629.444-.5308.61-.8169.34-2.3699.485-3.6765.485-3.0649 0-5.1268-.78-6.7428-2.278zm17.7003-.337c-.1833.526-.2861 1.034-.2861 1.414 0 .421.3872.61.7347.61h.1848c.204 0 .2654.041.2654.128 0 .127-.1846.168-.3679.168-.4899 0-1.3066-.064-1.5326-.064-.2242 0-1.3477.064-2.3083.064-.2654 0-.3869-.041-.3869-.168 0-.087.101-.128.2844-.128.1437 0 .327-.021.4911-.04.9387-.128 1.3478-.929 1.7159-1.984l4.6371-13.1023c.2447-.6966.327-.8224.4502-.8224.1215 0 .2038.1045.4485.7587.3066.8012 3.5153 9.516 4.7603 12.723.7361 1.875 1.3285 2.214 1.7568 2.342.3066.104.6336.125.7977.125.1218 0 .2245.023.2245.128 0 .127-.1834.168-.4091.168-.3065 0-1.7979 0-3.2073-.041-.3886-.023-.6128-.023-.6128-.15 0-.084.0616-.126.1436-.147.1218-.042.245-.233.1218-.569l-4.2295-11.8166c-.101-.3165-.2038-.3165-.3063 0zm15.2145 2.194c0-.085.1013-.147.3066-.147.1013 0 .2242 0 .5103-.023.9606-.084 1.6146-.507 2.452-1.856.5308-.908.7758-1.373 1.0015-1.878.1013-.211.0806-.317-.0219-.549-.6526-1.351-4.0651-7.8281-4.9641-9.3683-.7551-1.351-.9384-1.6235-2.125-1.7084-.1626-.0212-.2447-.0846-.2447-.1695 0-.0621.0616-.1258.3063-.1258.6132 0 1.5326.0637 2.125.0637.2245 0 1.226-.0637 1.88-.0637.2038 0 .2861.0425.2861.1061 0 .0834-.0411.1468-.3065.1892-.3475.0409-.5516.1894-.5516.3574 0 .1682.1629.4847.3477.8451.4281.8224 3.9008 7.5532 4.3306 8.3342 1.2661-2.603 2.5054-5.2193 3.7174-7.8495.2257-.5059.409-1.0343.409-1.3071 0-.1694-.1025-.2953-.3474-.3392-.2038-.0409-.3066-.1255-.3066-.2118 0-.0834.1028-.1031.327-.1031.3682 0 .7758.0409 1.2467.0409.5513 0 1.4914-.0636 1.8783-.0636.226 0 .3066.0424.3066.1258 0 .1058-.1218.1497-.3256.1694-.249.0267-.4954.076-.736.147-.572.2119-.817.5499-1.2465 1.4356-1.5515 3.1638-4.5139 9.2616-5.5772 11.5406-.2858.633-.8167 1.71-.9194 2.279-.0205.147-.0616.19-.1422.211-.2053.042-2.3904.063-3.2894.063-.2052.002-.327-.018-.327-.145zm25.9743-8.333c.7156-.656 3.4524-3.5468 4.6784-4.8748 1.267-1.3707 1.409-1.7099 1.409-1.9401 0-.1682-.081-.2955-.47-.3801-.203-.0424-.285-.0863-.285-.1682 0-.0863.102-.1273.285-.1273.511 0 1.002.0637 1.716.0637.634 0 1.697-.0637 2.045-.0637.265 0 .346.041.346.1485 0 .0864-.102.1258-.368.168-.307.0424-.653.1061-.939.2333-.572.2104-1.002.4635-2.228 1.7297-1.573 1.6235-4.249 4.346-4.76 4.916.757.886 4.475 5.169 5.721 6.371 1.37 1.309 2.105 1.815 2.86 1.983.265.064.592.086.777.086.183 0 .286.041.286.149 0 .127-.123.168-.348.168h-1.532c-1.86 0-2.37-.358-3.555-1.581-1.553-1.625-3.473-4.009-5.128-6.016-.1834-.23-.3668-.401-.5104-.591v2.068c0 2.026 0 3.692.1025 4.577.0602.611.1834 1.097.7965 1.182.3474.041.6334.062.8164.062.184 0 .267.064.267.128 0 .104-.083.168-.306.168-1.1251 0-2.392-.064-2.4933-.064-.1025 0-1.3887.064-2.0018.064-.2257 0-.2873-.041-.2873-.168 0-.064.1025-.128.2257-.128.1834 0 .3463-.021.5308-.062.4093-.086.5515-.422.6131-1.182.0602-.886.1028-2.552.1028-4.577v-2.068c-.1439.211-.3066.402-.4298.549-1.3889 1.687-3.5752 4.345-5.209 5.992-1.1863 1.201-1.676 1.645-3.4946 1.645h-1.5925c-.1848 0-.3065-.041-.3065-.148 0-.105.0806-.168.3065-.168.2243 0 .2654-.023.654-.064.7758-.104 1.6952-.654 3.2689-2.237 1.2655-1.287 3.9213-4.221 5.4742-6.014-.4899-.592-4.2292-4.4086-4.8216-5.0415-1.226-1.2237-1.6747-1.5404-2.2672-1.7523-.2853-.1004-.5796-.171-.8785-.2107-.2858-.0424-.3886-.0831-.3886-.168 0-.106.0821-.1485.3682-.1485.3474 0 1.4091.0637 2.0222.0637.7142 0 1.226-.0637 1.7568-.0637.1833 0 .2449.041.2449.1273 0 .0834-.0616.1256-.2654.168-.4093.0849-.4899.2121-.4899.3801 0 .2304.1834.6332 1.4505 1.9842 1.308 1.3917 3.6777 3.8604 4.5974 4.8314v-1.372c0-3.2914 0-3.8819-.0426-4.5576-.0397-.7192-.245-1.0752-.6937-1.1812-.2072-.0543-.4199-.0829-.6336-.0849-.082 0-.1626-.0424-.1626-.1255 0-.1288.101-.1698.3255-.1698.6745 0 1.9212.0637 2.0237.0637.1013 0 1.3477-.0637 1.9603-.0637.226 0 .327.041.327.1698 0 .0831-.082.1255-.162.1255-.172.0062-.344.0274-.5122.0636-.5513.1046-.7142.465-.7553 1.2025-.0409.6739-.0409 1.2662-.0409 4.5576zm17.2004-.824c0 .085.02.105.082.105h.551c2.351 0 3.411.295 4.29.781 1.39.782 2.248 2.048 2.248 3.862 0 2.025-1.574 4.6-5.067 4.6-.817 0-2.329-.127-2.921-.127-.101 0-1.348.063-1.961.063-.224 0-.327-.042-.327-.168 0-.064.082-.106.247-.127.224-.021.347-.042.53-.085.408-.085.511-.548.593-1.161.103-.886.103-2.552.103-4.577v-3.735c0-3.2699 0-3.8619-.041-4.5995-.042-.8011-.369-1.0754-.982-1.1618-.184-.0212-.203-.0212-.51-.0407-.185-.0229-.226-.0863-.226-.1682 0-.1061.124-.1273.286-.1273.777 0 1.676.0637 2.187.0637.346 0 5.168 0 5.618-.0213.45-.0227.878-.0636 1.001-.1272.122-.0634.165-.0846.225-.0846.061 0 .101.0424.082.1482-.041.1894-.103.3801-.164.9709-.046.4413-.073.8845-.081 1.3283 0 .2543-.082.3589-.164.3589-.123 0-.162-.1046-.162-.2758 0-.274-.041-.5269-.102-.6951-.142-.4847-.572-.7375-1.471-.7814-1.232-.0321-2.465-.0464-3.697-.0425-.122 0-.163.0637-.163.2137v5.6107zm0 2.236c0 2.131 0 4.177.041 5.169.02.571.183.823.387.907.532.254 1.186.316 1.983.316 1.676 0 2.921-1.052 2.921-3.418 0-1.477-.348-2.637-1.451-3.544-.835-.696-2.123-.928-3.799-.886-.04 0-.082.043-.082.105zm14.311.822c-.101 0-.161.064-.204.17l-1.226 3.735c-.184.526-.286 1.032-.286 1.413 0 .422.389.611.735.611h.185c.205 0 .267.043.267.128 0 .125-.185.168-.368.168-.49 0-1.308-.064-1.533-.064-.224 0-1.348.064-2.308.064-.267 0-.39-.043-.39-.168 0-.085.102-.128.286-.128.143 0 .327-.021.491-.042.94-.126 1.348-.927 1.716-1.982l4.637-13.1038c.245-.6951.327-.8224.452-.8224.12 0 .203.106.448.7602.307.8012 3.514 9.514 4.76 12.722.736 1.878 1.328 2.215 1.757 2.343.307.104.634.125.798.125.122 0 .223.021.223.128 0 .125-.183.168-.408.168-.306 0-1.799 0-3.208-.043-.389-.021-.613-.021-.613-.147 0-.086.061-.127.143-.15.122-.04.245-.23.122-.569l-1.899-5.19c-.04-.085-.082-.127-.185-.127h-4.392zm4.127-.759c.102 0 .102-.063.082-.148l-1.942-5.6976c-.1-.3165-.204-.3165-.306 0l-1.798 5.6976c-.04.104 0 .148.061.148z" fill="#1f3669"/></svg>